<svg width="4" height="19" viewBox="0 0 4 19" fill="none" xmlns="http://www.w3.org/2000/svg">
<path fill-rule="evenodd" clip-rule="evenodd" d="M2 4C3.1 4 4 3.1 4 2C4 0.9 3.1 0 2 0C0.9 0 0 0.9 0 2C0 3.1 0.9 4 2 4ZM2 7.23047C0.9 7.23047 0 8.13047 0 9.23047C0 10.3305 0.9 11.2305 2 11.2305C3.1 11.2305 4 10.3305 4 9.23047C4 8.13047 3.1 7.23047 2 7.23047ZM0 16.4619C0 15.3619 0.9 14.4619 2 14.4619C3.1 14.4619 4 15.3619 4 16.4619C4 17.5619 3.1 18.4619 2 18.4619C0.9 18.4619 0 17.5619 0 16.4619Z" fill="#212121"/>
</svg>
