<svg width="14" height="15" viewBox="0 0 14 15" fill="none" xmlns="http://www.w3.org/2000/svg">
<path fill-rule="evenodd" clip-rule="evenodd" d="M1.36719 6.07532C1.36719 3.82458 3.19177 2 5.44251 2C7.69324 2 9.51782 3.82458 9.51782 6.07532C9.51782 8.32605 7.69324 10.1506 5.44251 10.1506C3.19177 10.1506 1.36719 8.32605 1.36719 6.07532ZM5.44251 1C2.63948 1 0.367188 3.2723 0.367188 6.07532C0.367188 8.87834 2.63948 11.1506 5.44251 11.1506C6.6637 11.1506 7.78415 10.7193 8.65986 10.0008L12.3327 13.6736L12.6862 14.0271L13.3933 13.32L13.0398 12.9665L9.36706 9.29374C10.0862 8.41788 10.5178 7.29701 10.5178 6.07532C10.5178 3.2723 8.24553 1 5.44251 1Z" fill="#C7C7C7"/>
<path d="M8.65986 10.0008L8.76592 9.89469L8.6698 9.79856L8.5647 9.8848L8.65986 10.0008ZM12.3327 13.6736L12.2266 13.7796L12.3327 13.6736ZM12.6862 14.0271L12.5802 14.1332L12.6862 14.2393L12.7923 14.1332L12.6862 14.0271ZM13.3933 13.32L13.4994 13.4261L13.6055 13.32L13.4994 13.214L13.3933 13.32ZM13.0398 12.9665L13.1458 12.8604L13.0398 12.9665ZM9.36706 9.29374L9.25113 9.19856L9.16484 9.30365L9.26099 9.39981L9.36706 9.29374ZM5.44251 1.85C3.10893 1.85 1.21719 3.74174 1.21719 6.07532H1.51719C1.51719 3.90742 3.27461 2.15 5.44251 2.15V1.85ZM9.66782 6.07532C9.66782 3.74174 7.77608 1.85 5.44251 1.85V2.15C7.6104 2.15 9.36782 3.90742 9.36782 6.07532H9.66782ZM5.44251 10.3006C7.77608 10.3006 9.66782 8.4089 9.66782 6.07532H9.36782C9.36782 8.24321 7.6104 10.0006 5.44251 10.0006V10.3006ZM1.21719 6.07532C1.21719 8.4089 3.10893 10.3006 5.44251 10.3006V10.0006C3.27461 10.0006 1.51719 8.24321 1.51719 6.07532H1.21719ZM0.517188 6.07532C0.517188 3.35514 2.72233 1.15 5.44251 1.15V0.85C2.55664 0.85 0.217187 3.18945 0.217187 6.07532H0.517188ZM5.44251 11.0006C2.72233 11.0006 0.517188 8.7955 0.517188 6.07532H0.217187C0.217187 8.96118 2.55664 11.3006 5.44251 11.3006V11.0006ZM8.5647 9.8848C7.71484 10.5822 6.62774 11.0006 5.44251 11.0006V11.3006C6.69965 11.3006 7.85347 10.8565 8.75501 10.1167L8.5647 9.8848ZM12.4387 13.5675L8.76592 9.89469L8.55379 10.1068L12.2266 13.7796L12.4387 13.5675ZM12.7923 13.9211L12.4387 13.5675L12.2266 13.7796L12.5802 14.1332L12.7923 13.9211ZM13.2873 13.214L12.5802 13.9211L12.7923 14.1332L13.4994 13.4261L13.2873 13.214ZM12.9337 13.0725L13.2873 13.4261L13.4994 13.214L13.1458 12.8604L12.9337 13.0725ZM9.26099 9.39981L12.9337 13.0725L13.1458 12.8604L9.47312 9.18768L9.26099 9.39981ZM10.3678 6.07532C10.3678 7.26104 9.94902 8.34854 9.25113 9.19856L9.48299 9.38892C10.2233 8.48722 10.6678 7.33298 10.6678 6.07532H10.3678ZM5.44251 1.15C8.16268 1.15 10.3678 3.35514 10.3678 6.07532H10.6678C10.6678 3.18945 8.32837 0.85 5.44251 0.85V1.15Z" fill="#C7C7C7"/>
</svg>
